# Wavefront OBJ exported by MilkShape 3D

v -8.620000 -8.391800 5.900800
v -7.742900 -6.932900 9.667800
v -12.001800 -5.684900 8.269600
v -13.912900 -6.788300 5.326000
v -0.770600 -9.062700 6.103300
v -0.952600 -7.563800 10.108600
v 7.126400 -8.226800 5.227700
v 5.925700 -6.936000 9.015000
v 12.815100 -7.096000 4.510400
v 10.508900 -6.182800 7.515100
v -9.409100 -9.062500 0.250800
v -14.905000 -7.137100 0.316900
v -0.781300 -9.612000 0.116200
v 8.077700 -8.685500 -0.108000
v 14.314600 -7.433500 -0.286400
v -9.243100 -8.432000 -5.456500
v -14.431400 -6.827000 -4.742700
v -1.122900 -8.931200 -5.920600
v 7.482700 -8.332200 -5.563900
v 13.620200 -6.681400 -4.976800
v -8.792800 -6.906700 -9.330300
v -12.988000 -5.795800 -7.926300
v -1.589800 -7.135200 -9.795800
v 6.335100 -6.883400 -9.321000
v 11.771600 -6.074400 -8.167900
v -8.486300 7.585500 5.645000
v -13.737800 5.758600 5.107600
v -11.935100 4.683400 8.036000
v -7.594900 5.670000 9.115900
v -0.777300 8.572600 5.945400
v -0.933700 6.240500 9.499500
v 7.097900 7.762800 5.144300
v 5.780900 5.977800 8.692400
v 12.545000 6.065100 4.261500
v 10.372500 5.124200 7.244300
v -9.392900 8.842200 0.260200
v -14.793400 6.432400 0.321400
v -0.775400 9.612000 0.088000
v 8.087700 8.710400 -0.088000
v 14.221300 6.648500 -0.249800
v -9.221100 8.173700 -5.462100
v -14.320600 6.026800 -4.727700
v -1.100400 8.622000 -5.791700
v 7.482800 8.045300 -5.533000
v 13.520400 6.068200 -4.977000
v -8.819300 6.291200 -9.289500
v -13.218900 5.521800 -8.206800
v -1.536400 6.422400 -9.702800
v 6.316700 6.241800 -9.304600
v 11.729100 5.303000 -8.061000
v -8.510200 -4.249200 11.794700
v -13.620700 -3.537500 9.471800
v -1.176300 -4.658700 12.271900
v 6.255400 -4.398200 10.907800
v 11.683900 -3.823500 8.164300
v -8.947600 -0.735200 11.848400
v -14.491200 -0.554700 9.807900
v -1.288400 -0.544300 13.641200
v 6.626900 -0.432900 11.752500
v 12.525200 -0.368800 8.947600
v -8.319500 2.980700 10.900700
v -13.474500 2.588200 9.122900
v -1.161000 3.420600 11.967200
v 6.255600 3.458600 10.804800
v 11.946400 3.215500 8.578600
v 15.943200 -4.467900 4.848700
v 17.739700 -4.368300 -0.487200
v 17.313200 -4.381300 -5.611000
v 13.584900 -3.787300 -9.149600
v 16.694599 -0.468600 4.760100
v 19.326000 -0.734200 -0.575300
v 18.355801 -0.389800 -5.687100
v 14.570500 -0.345000 -9.795500
v 15.523100 3.286900 4.495100
v 17.643101 3.388200 -0.437200
v 17.097200 3.165400 -5.540200
v 13.658400 3.075700 -9.260100
v 6.987500 -4.278300 -11.481900
v -1.930500 -4.549600 -12.330000
v -9.894400 -4.432800 -11.717400
v -14.580000 -3.676700 -9.079900
v 7.538800 -0.486200 -12.308100
v -2.056200 -0.546000 -13.641200
v -10.439300 -0.459100 -12.205300
v -15.187600 -0.472900 -9.575800
v 7.055700 3.438700 -11.526500
v -1.895900 3.663900 -12.489300
v -9.819300 3.428400 -11.487800
v -14.517400 3.063300 -9.122400
v -17.289600 -4.184400 -5.227100
v -18.306999 -4.497500 0.318900
v -17.113501 -4.261900 5.954500
v -18.565599 -0.446300 -5.640600
v -19.326000 -0.539900 0.297700
v -17.655100 -0.666800 5.966900
v -17.294600 3.377400 -5.214000
v -18.333000 3.597200 0.320400
v -16.400299 2.983900 5.493100
# 98 vertices

vt 0.188000 0.573600
vt 0.193500 0.622000
vt 0.122100 0.623300
vt 0.101400 0.573200
vt 0.315900 0.589400
vt 0.290500 0.632900
vt 0.438200 0.624100
vt 0.387100 0.654900
vt 0.514000 0.663600
vt 0.459100 0.683900
vt 0.184800 0.446100
vt 0.141900 0.499800
vt 0.082900 0.425100
vt 0.119100 0.388100
vt 0.315400 0.512000
vt 0.259600 0.571200
vt 0.461500 0.550000
vt 0.397000 0.606400
vt 0.557700 0.560800
vt 0.497300 0.609800
vt 0.240200 0.390500
vt 0.171000 0.350700
vt 0.362500 0.441300
vt 0.493800 0.479400
vt 0.582700 0.494500
vt 0.283200 0.352200
vt 0.221600 0.321800
vt 0.384000 0.388200
vt 0.488800 0.416400
vt 0.568900 0.433400
vt 0.140700 0.902900
vt 0.061800 0.891300
vt 0.093100 0.845300
vt 0.159400 0.850800
vt 0.257200 0.915100
vt 0.248600 0.859300
vt 0.376800 0.917600
vt 0.342800 0.866600
vt 0.453800 0.909300
vt 0.413600 0.867700
vt 0.128100 0.976300
vt 0.049900 0.956200
vt 0.264300 0.994800
vt 0.406900 0.988200
vt 0.495800 0.964400
vt 0.315200 0.063300
vt 0.240700 0.073600
vt 0.195800 0.029800
vt 0.293500 0.001400
vt 0.452400 0.085300
vt 0.452600 0.012100
vt 0.583200 0.133000
vt 0.604000 0.072700
vt 0.674000 0.183100
vt 0.688700 0.121000
vt 0.337900 0.115300
vt 0.266400 0.116600
vt 0.445200 0.138700
vt 0.558800 0.182200
vt 0.631300 0.213200
vt 0.158500 0.666900
vt 0.081700 0.663600
vt 0.269800 0.674700
vt 0.380600 0.698700
vt 0.460600 0.723300
vt 0.133900 0.728200
vt 0.055500 0.726600
vt 0.248700 0.736500
vt 0.368800 0.758600
vt 0.449900 0.776500
vt 0.138100 0.797200
vt 0.062100 0.794700
vt 0.244100 0.805800
vt 0.354300 0.819800
vt 0.433200 0.828400
vt 0.540000 0.724400
vt 0.641800 0.724300
vt 0.583300 0.657800
vt 0.655300 0.466400
vt 0.635400 0.551500
vt 0.621200 0.401400
vt 0.523100 0.795400
vt 0.604500 0.822600
vt 0.648900 0.878000
vt 0.676000 0.764900
vt 0.658700 0.350100
vt 0.710400 0.414600
vt 0.494400 0.863500
vt 0.560100 0.907600
vt 0.597600 0.977300
vt 0.660700 0.997400
vt 0.680600 0.956300
vt 0.549300 0.998800
vt 0.712700 0.238700
vt 0.658300 0.280300
vt 0.529900 0.375500
vt 0.401200 0.337900
vt 0.284200 0.297400
vt 0.218700 0.275900
vt 0.563700 0.311300
vt 0.421500 0.266200
vt 0.294300 0.228600
vt 0.226700 0.214700
vt 0.563700 0.237800
vt 0.435300 0.193100
vt 0.311600 0.164800
vt 0.241200 0.156700
vt 0.160600 0.291700
vt 0.086600 0.315000
vt 0.025100 0.340800
vt 0.040200 0.615200
vt 0.168800 0.204200
vt 0.100700 0.211500
vt 0.030600 0.227600
vt 0.001100 0.681100
vt 0.192200 0.127100
vt 0.128700 0.108400
vt 0.074900 0.093500
vt 0.040600 0.095400
vt 0.001300 0.166300
vt 0.130200 0.007200
vt 0.017100 0.847400
# 122 texture coordinates

vn -0.210700 -0.938800 0.272500
vn -0.239800 -0.777600 0.581300
vn -0.397600 -0.723800 0.564000
vn -0.437400 -0.831300 0.343000
vn 0.019600 -0.972000 0.234200
vn 0.030500 -0.800600 0.598400
vn 0.177800 -0.951600 0.250900
vn 0.248100 -0.757300 0.604200
vn 0.418300 -0.827800 0.373900
vn 0.392000 -0.670800 0.629600
vn -0.196000 -0.980600 0.010200
vn -0.477500 -0.878400 0.018700
vn 0.014600 -0.999900 0.000000
vn 0.159300 -0.987200 -0.002000
vn 0.430800 -0.902200 0.022900
vn -0.201400 -0.945400 -0.256100
vn -0.473900 -0.833000 -0.285600
vn 0.005300 -0.967200 -0.254000
vn 0.159900 -0.953800 -0.254400
vn 0.391700 -0.871900 -0.293900
vn -0.226900 -0.813700 -0.535200
vn -0.439500 -0.751000 -0.492800
vn 0.003100 -0.820000 -0.572300
vn 0.173000 -0.796900 -0.578800
vn 0.335500 -0.763600 -0.551700
vn -0.232300 0.896400 0.377400
vn -0.478400 0.780800 0.401900
vn -0.399600 0.687300 0.606500
vn -0.222400 0.727400 0.649200
vn 0.001800 0.930700 0.365800
vn -0.002200 0.756000 0.654600
vn 0.221800 0.903500 0.366700
vn 0.220000 0.752600 0.620700
vn 0.463000 0.790300 0.401300
vn 0.387800 0.722900 0.571900
vn -0.245000 0.968200 0.049800
vn -0.525100 0.848100 0.070800
vn 0.003200 0.999700 0.025800
vn 0.212300 0.976800 0.028300
vn 0.504300 0.861100 0.064000
vn -0.222900 0.935200 -0.275300
vn -0.515000 0.817000 -0.259300
vn 0.003000 0.950000 -0.312200
vn 0.190000 0.931300 -0.310900
vn 0.451600 0.835200 -0.314000
vn -0.213600 0.777500 -0.591500
vn -0.457500 0.724300 -0.515800
vn -0.001300 0.790000 -0.613000
vn 0.178900 0.775700 -0.605300
vn 0.364600 0.746200 -0.557100
vn -0.268600 -0.415400 0.869100
vn -0.512800 -0.435800 0.739700
vn 0.034200 -0.431000 0.901700
vn 0.307700 -0.416300 0.855600
vn 0.501800 -0.393600 0.770200
vn -0.272700 0.078200 0.958900
vn -0.570000 0.083300 0.817400
vn 0.012300 0.051400 0.998600
vn 0.317900 -0.000200 0.948100
vn 0.567600 -0.008100 0.823200
vn -0.243100 0.467800 0.849700
vn -0.494800 0.484100 0.721700
vn -0.005600 0.493900 0.869500
vn 0.258800 0.476200 0.840400
vn 0.507900 0.467900 0.723300
vn 0.707000 -0.469200 0.529100
vn 0.817000 -0.569800 0.089000
vn 0.720000 -0.569800 -0.396100
vn 0.458700 -0.485000 -0.744600
vn 0.819100 0.020100 0.573300
vn 0.990400 0.024200 0.136000
vn 0.895400 0.017600 -0.444900
vn 0.542400 0.000300 -0.840100
vn 0.713800 0.498600 0.491900
vn 0.818500 0.563000 0.114100
vn 0.739600 0.559300 -0.374400
vn 0.478700 0.489300 -0.729000
vn 0.208800 -0.466300 -0.859700
vn 0.001500 -0.486500 -0.873700
vn -0.290300 -0.484300 -0.825300
vn -0.576600 -0.484800 -0.657700
vn 0.233300 -0.016500 -0.972300
vn -0.008000 -0.007000 -0.999900
vn -0.318700 0.007400 -0.947800
vn -0.644000 0.002500 -0.765000
vn 0.207600 0.457500 -0.864600
vn -0.008500 0.470500 -0.882400
vn -0.271200 0.443000 -0.854500
vn -0.577700 0.449200 -0.681500
vn -0.763300 -0.534600 -0.362700
vn -0.837800 -0.545100 0.031700
vn -0.737800 -0.504700 0.448300
vn -0.913400 -0.006300 -0.407000
vn -0.997500 0.019100 0.067700
vn -0.872000 0.063000 0.485500
vn -0.784500 0.517100 -0.342300
vn -0.833800 0.545500 0.084400
vn -0.729000 0.513900 0.452300
# 98 normals

g Box001
s 1
f 1/1/1 2/2/2 3/3/3
f 1/1/1 3/3/3 4/4/4
f 5/5/5 6/6/6 2/2/2
f 5/5/5 2/2/2 1/1/1
f 7/7/7 8/8/8 6/6/6
f 7/7/7 6/6/6 5/5/5
f 9/9/9 10/10/10 8/8/8
f 9/9/9 8/8/8 7/7/7
f 11/11/11 1/12/1 4/13/4
f 11/11/11 4/13/4 12/14/12
f 13/15/13 5/16/5 1/12/1
f 13/15/13 1/12/1 11/11/11
f 14/17/14 7/18/7 5/16/5
f 14/17/14 5/16/5 13/15/13
f 15/19/15 9/20/9 7/18/7
f 15/19/15 7/18/7 14/17/14
f 16/21/16 11/11/11 12/14/12
f 16/21/16 12/14/12 17/22/17
f 18/23/18 13/15/13 11/11/11
f 18/23/18 11/11/11 16/21/16
f 19/24/19 14/17/14 13/15/13
f 19/24/19 13/15/13 18/23/18
f 20/25/20 15/19/15 14/17/14
f 20/25/20 14/17/14 19/24/19
f 21/26/21 16/21/16 17/22/17
f 21/26/21 17/22/17 22/27/22
f 23/28/23 18/23/18 16/21/16
f 23/28/23 16/21/16 21/26/21
f 24/29/24 19/24/19 18/23/18
f 24/29/24 18/23/18 23/28/23
f 25/30/25 20/25/20 19/24/19
f 25/30/25 19/24/19 24/29/24
f 26/31/26 27/32/27 28/33/28
f 26/31/26 28/33/28 29/34/29
f 30/35/30 26/31/26 29/34/29
f 30/35/30 29/34/29 31/36/31
f 32/37/32 30/35/30 31/36/31
f 32/37/32 31/36/31 33/38/33
f 34/39/34 32/37/32 33/38/33
f 34/39/34 33/38/33 35/40/35
f 36/41/36 37/42/37 27/32/27
f 36/41/36 27/32/27 26/31/26
f 38/43/38 36/41/36 26/31/26
f 38/43/38 26/31/26 30/35/30
f 39/44/39 38/43/38 30/35/30
f 39/44/39 30/35/30 32/37/32
f 40/45/40 39/44/39 32/37/32
f 40/45/40 32/37/32 34/39/34
f 41/46/41 42/47/42 37/48/37
f 41/46/41 37/48/37 36/49/36
f 43/50/43 41/46/41 36/49/36
f 43/50/43 36/49/36 38/51/38
f 44/52/44 43/50/43 38/51/38
f 44/52/44 38/51/38 39/53/39
f 45/54/45 44/52/44 39/53/39
f 45/54/45 39/53/39 40/55/40
f 46/56/46 47/57/47 42/47/42
f 46/56/46 42/47/42 41/46/41
f 48/58/48 46/56/46 41/46/41
f 48/58/48 41/46/41 43/50/43
f 49/59/49 48/58/48 43/50/43
f 49/59/49 43/50/43 44/52/44
f 50/60/50 49/59/49 44/52/44
f 50/60/50 44/52/44 45/54/45
f 51/61/51 52/62/52 3/3/3
f 51/61/51 3/3/3 2/2/2
f 53/63/53 51/61/51 2/2/2
f 53/63/53 2/2/2 6/6/6
f 54/64/54 53/63/53 6/6/6
f 54/64/54 6/6/6 8/8/8
f 55/65/55 54/64/54 8/8/8
f 55/65/55 8/8/8 10/10/10
f 56/66/56 57/67/57 52/62/52
f 56/66/56 52/62/52 51/61/51
f 58/68/58 56/66/56 51/61/51
f 58/68/58 51/61/51 53/63/53
f 59/69/59 58/68/58 53/63/53
f 59/69/59 53/63/53 54/64/54
f 60/70/60 59/69/59 54/64/54
f 60/70/60 54/64/54 55/65/55
f 61/71/61 62/72/62 57/67/57
f 61/71/61 57/67/57 56/66/56
f 63/73/63 61/71/61 56/66/56
f 63/73/63 56/66/56 58/68/58
f 64/74/64 63/73/63 58/68/58
f 64/74/64 58/68/58 59/69/59
f 65/75/65 64/74/64 59/69/59
f 65/75/65 59/69/59 60/70/60
f 29/34/29 28/33/28 62/72/62
f 29/34/29 62/72/62 61/71/61
f 31/36/31 29/34/29 61/71/61
f 31/36/31 61/71/61 63/73/63
f 33/38/33 31/36/31 63/73/63
f 33/38/33 63/73/63 64/74/64
f 35/40/35 33/38/33 64/74/64
f 35/40/35 64/74/64 65/75/65
f 66/76/66 55/65/55 10/10/10
f 66/76/66 10/10/10 9/9/9
f 67/77/67 66/76/66 9/9/9
f 67/77/67 9/9/9 15/78/15
f 68/79/68 67/80/67 15/19/15
f 68/79/68 15/19/15 20/25/20
f 69/81/69 68/79/68 20/25/20
f 69/81/69 20/25/20 25/30/25
f 70/82/70 60/70/60 55/65/55
f 70/82/70 55/65/55 66/76/66
f 71/83/71 70/82/70 66/76/66
f 71/83/71 66/76/66 67/77/67
f 72/84/72 71/83/71 67/77/67
f 72/84/72 67/77/67 68/85/68
f 73/86/73 72/87/72 68/79/68
f 73/86/73 68/79/68 69/81/69
f 74/88/74 65/75/65 60/70/60
f 74/88/74 60/70/60 70/82/70
f 75/89/75 74/88/74 70/82/70
f 75/89/75 70/82/70 71/83/71
f 76/90/76 75/89/75 71/83/71
f 76/90/76 71/83/71 72/84/72
f 77/91/77 76/90/76 72/84/72
f 77/91/77 72/84/72 73/92/73
f 34/39/34 35/40/35 65/75/65
f 34/39/34 65/75/65 74/88/74
f 40/45/40 34/39/34 74/88/74
f 40/45/40 74/88/74 75/89/75
f 45/93/45 40/45/40 75/89/75
f 45/93/45 75/89/75 76/90/76
f 50/60/50 45/54/45 76/94/76
f 50/60/50 76/94/76 77/95/77
f 78/96/78 69/81/69 25/30/25
f 78/96/78 25/30/25 24/29/24
f 79/97/79 78/96/78 24/29/24
f 79/97/79 24/29/24 23/28/23
f 80/98/80 79/97/79 23/28/23
f 80/98/80 23/28/23 21/26/21
f 81/99/81 80/98/80 21/26/21
f 81/99/81 21/26/21 22/27/22
f 82/100/82 73/86/73 69/81/69
f 82/100/82 69/81/69 78/96/78
f 83/101/83 82/100/82 78/96/78
f 83/101/83 78/96/78 79/97/79
f 84/102/84 83/101/83 79/97/79
f 84/102/84 79/97/79 80/98/80
f 85/103/85 84/102/84 80/98/80
f 85/103/85 80/98/80 81/99/81
f 86/104/86 77/95/77 73/86/73
f 86/104/86 73/86/73 82/100/82
f 87/105/87 86/104/86 82/100/82
f 87/105/87 82/100/82 83/101/83
f 88/106/88 87/105/87 83/101/83
f 88/106/88 83/101/83 84/102/84
f 89/107/89 88/106/88 84/102/84
f 89/107/89 84/102/84 85/103/85
f 49/59/49 50/60/50 77/95/77
f 49/59/49 77/95/77 86/104/86
f 48/58/48 49/59/49 86/104/86
f 48/58/48 86/104/86 87/105/87
f 46/56/46 48/58/48 87/105/87
f 46/56/46 87/105/87 88/106/88
f 47/57/47 46/56/46 88/106/88
f 47/57/47 88/106/88 89/107/89
f 90/108/90 81/99/81 22/27/22
f 90/108/90 22/27/22 17/22/17
f 91/109/91 90/108/90 17/22/17
f 91/109/91 17/22/17 12/14/12
f 92/110/92 91/109/91 12/14/12
f 92/110/92 12/14/12 4/13/4
f 52/62/52 92/111/92 4/4/4
f 52/62/52 4/4/4 3/3/3
f 93/112/93 85/103/85 81/99/81
f 93/112/93 81/99/81 90/108/90
f 94/113/94 93/112/93 90/108/90
f 94/113/94 90/108/90 91/109/91
f 95/114/95 94/113/94 91/109/91
f 95/114/95 91/109/91 92/110/92
f 57/67/57 95/115/95 92/111/92
f 57/67/57 92/111/92 52/62/52
f 96/116/96 89/107/89 85/103/85
f 96/116/96 85/103/85 93/112/93
f 97/117/97 96/116/96 93/112/93
f 97/117/97 93/112/93 94/113/94
f 98/118/98 97/117/97 94/113/94
f 98/118/98 94/113/94 95/114/95
f 62/119/62 98/118/98 95/114/95
f 62/119/62 95/114/95 57/120/57
f 42/47/42 47/57/47 89/107/89
f 42/47/42 89/107/89 96/116/96
f 37/48/37 42/47/42 96/116/96
f 37/48/37 96/116/96 97/117/97
f 27/121/27 37/48/37 97/117/97
f 27/121/27 97/117/97 98/118/98
f 28/33/28 27/32/27 98/122/98
f 28/33/28 98/122/98 62/72/62
# 192 triangles in group

# 192 triangles total

